<svg width="1399" height="672" viewBox="0 0 1399 672" fill="none" xmlns="http://www.w3.org/2000/svg">
<line x1="1397.83" y1="2.93053e-08" x2="1397.83" y2="671.172" stroke="#303030"/>
<line x1="1298.09" y1="2.93053e-08" x2="1298.09" y2="671.172" stroke="#303030"/>
<line x1="1198.35" y1="2.93053e-08" x2="1198.35" y2="671.172" stroke="#303030"/>
<line x1="1098.6" y1="2.93053e-08" x2="1098.6" y2="671.172" stroke="#303030"/>
<line x1="998.862" y1="2.93053e-08" x2="998.862" y2="671.172" stroke="#303030"/>
<line x1="899.118" y1="2.93053e-08" x2="899.118" y2="671.172" stroke="#303030"/>
<line x1="799.377" y1="2.93053e-08" x2="799.377" y2="671.172" stroke="#303030"/>
<line x1="699.635" y1="2.93053e-08" x2="699.635" y2="671.172" stroke="#303030"/>
<line x1="599.891" y1="2.93053e-08" x2="599.891" y2="671.172" stroke="#303030"/>
<line x1="500.149" y1="2.93053e-08" x2="500.149" y2="671.172" stroke="#303030"/>
<line x1="400.406" y1="2.93053e-08" x2="400.406" y2="671.172" stroke="#303030"/>
<line x1="300.664" y1="2.93053e-08" x2="300.664" y2="671.172" stroke="#303030"/>
<line x1="200.921" y1="2.93053e-08" x2="200.921" y2="671.172" stroke="#303030"/>
<line x1="101.178" y1="2.93053e-08" x2="101.178" y2="671.172" stroke="#303030"/>
<line x1="1.43604" y1="2.18557e-08" x2="1.43601" y2="671.172" stroke="#303030"/>
</svg>
